<svg t="1765722442283" class="icon" viewBox="0 0 1024 1024" version="1.1" xmlns="http://www.w3.org/2000/svg" p-id="5450" data-spm-anchor-id="a313x.search_index.0.i12.117d3a81Ij9bsI" width="256" height="256"><path d="M25.6 844.8a102.4 102.4 0 0 0 102.4 102.4h768a102.4 102.4 0 0 0 102.4-102.4v-665.6a102.4 102.4 0 0 0-102.4-102.4h-768a102.4 102.4 0 0 0-102.4 102.4v665.6z m102.4 51.2q-21.1968 0-36.1984-15.0016T76.8 844.8v-665.6q0-21.1968 15.0016-36.1984T128 128h768q21.1968 0 36.1984 15.0016t15.0016 36.1984v665.6q0 21.1968-15.0016 36.1984t-36.1984 15.0016h-768z" fill="#d7d9e0" p-id="5451" data-spm-anchor-id="a313x.search_index.0.i15.117d3a81Ij9bsI" class=""></path><path d="M911.36 652.8v-0.8704q0.0512-32.8704-20.7872-54.2208-10.9568-11.8784-28.8768-23.9616 42.2912-22.4256 42.2912-70.7584 0-3.072-0.2048-6.144-1.4336-43.1104-35.0208-68.2496-34.304-25.2928-91.392-25.2928h-3.3792q-57.0368 0-92.8256 28.928-38.7584 29.5936-43.8784 83.456l-1.024 10.752h77.2096l0.8704-8.8064q2.56-25.1904 17.4592-37.12 14.4384-12.032 42.6496-12.032 27.2896 0 40.448 10.1888 11.1104 9.5232 11.1104 28.4672 0 18.9952-12.3392 28.7232-13.9776 10.3424-42.3424 10.3424h-34.6624l0.4608 63.488h34.6624q31.8976 0 46.9504 11.264l0.1024 0.1536q14.592 10.3936 14.592 33.024 0 18.432-14.336 31.5904-17.2032 14.7968-47.3088 14.7968-26.9824 0-43.52-13.6704-17.2032-14.08-18.4832-41.7792l-0.4608-9.3184h-79.5136l0.8704 10.6496q5.12 59.5456 45.9264 90.88 36.7104 28.16 95.6416 28.16h3.3792q60.7744 0 98.816-31.5904 36.9664-31.1808 36.9664-80.128v-0.8704zM309.76 764.2624v-9.984q0-55.296 40.0896-95.3344 21.504-21.9136 87.9616-62.3616 32.9216-20.3264 49.7152-35.84 21.6576-21.76 21.6576-45.4656 0-22.016-12.6464-32.768-13.4656-10.752-42.3424-10.752-29.7984 0.0512-44.032 17.3056l-0.1536 0.1536-0.1024 0.1024q-14.9504 16.896-16.384 52.8896l-0.4096 9.5744h-81.408l0.1536-10.1376q0.8192-60.0064 39.7312-96.7168 7.168-6.9632 15.0528-12.6976 23.6544-17.152 54.528-23.1424 16.2816-3.2256 34.5088-3.2256h0.6144q57.9072 0 96.1536 30.1056 38.4 30.8736 38.4 79.8208 0 46.592-39.7824 85.7088-21.4016 20.2752-79.5648 54.8352-38.0928 22.2208-55.1936 40.0896h175.0528v67.84h-281.6zM184.5248 503.9104q-30.6176 19.712-71.936 30.5664V458.752q7.168-1.8944 14.592-4.5056 13.7728-5.0688 28.4672-12.4416 29.0816-16.0768 47.3088-33.28l1.3824-1.28h1.536l0.2048-0.2048H263.68v358.4H184.5248V503.9104z" fill="#3377ff" p-id="5452" data-spm-anchor-id="a313x.search_index.0.i13.117d3a81Ij9bsI" class=""></path><path d="M358.4 231.424h307.2v76.8H358.4v-76.8z" fill="#777E8C" opacity=".3" p-id="5453"></path></svg>